<svg width="56" height="56" viewBox="0 0 56 56" fill="none" xmlns="http://www.w3.org/2000/svg">
<path d="M30.2316 0H25.7451C11.5546 0 0 11.194 0 24.9492C0 38.7043 11.5546 49.8983 25.7528 49.8983H30.2394C32.4554 49.8983 34.6482 49.6271 36.7787 49.0847L43.4035 55.4953C43.7456 55.8267 44.1966 56 44.6554 56C44.8809 56 45.1141 55.9548 45.3319 55.8719C45.9928 55.6083 46.4282 54.983 46.4282 54.29V44.354C49.2352 42.1544 51.5601 39.3748 53.2008 36.2712C55.0592 32.7458 56 28.9341 56 24.9492C55.9844 11.194 44.4299 0 30.2316 0Z" fill="#216EF4"/>
</svg>
