<svg xmlns="http://www.w3.org/2000/svg" fill="none" viewBox="0 0 32 32"><path stroke="#216EF4" stroke-linecap="round" stroke-linejoin="round" stroke-width="2" d="M16 20a4 4 0 100-8 4 4 0 000 8z"/><path stroke="#216EF4" stroke-linecap="round" stroke-linejoin="round" stroke-width="2" d="M25.867 20a2.2 2.2 0 00.44 2.427l.08.08a2.666 2.666 0 01-.866 4.352 2.666 2.666 0 01-2.908-.579l-.08-.08a2.2 2.2 0 00-2.426-.44 2.2 2.2 0 00-1.334 2.013V28a2.667 2.667 0 01-5.333 0v-.12A2.2 2.2 0 0012 25.867a2.199 2.199 0 00-2.427.44l-.08.08a2.667 2.667 0 11-3.773-3.774l.08-.08a2.2 2.2 0 00.44-2.426 2.2 2.2 0 00-2.013-1.334H4a2.667 2.667 0 110-5.333h.12A2.2 2.2 0 006.133 12a2.2 2.2 0 00-.44-2.427l-.08-.08A2.667 2.667 0 017.5 4.938a2.667 2.667 0 011.887.782l.08.08a2.2 2.2 0 002.426.44H12a2.2 2.2 0 001.333-2.013V4a2.667 2.667 0 115.334 0v.12A2.2 2.2 0 0020 6.133a2.2 2.2 0 002.427-.44l.08-.08a2.668 2.668 0 113.773 3.774l-.08.08a2.201 2.201 0 00-.44 2.426V12a2.2 2.2 0 002.013 1.333H28a2.667 2.667 0 010 5.334h-.12A2.2 2.2 0 0025.867 20v0z"/></svg>