<svg xmlns="http://www.w3.org/2000/svg" fill="none" viewBox="0 0 64 64"><g clip-path="url(#clip0)"><path fill="#fff" d="M34.55.12c-1.996-.16-3.131-.16-5.127 0C13.473 1.391 0 12.888 0 28.58c0 15.69 13.205 28.46 29.432 28.46h5.127c2.533 0 5.039-.31 7.474-.928l7.571 7.312c.391.378.906.576 1.43.576a2.2 2.2 0 00.774-.146c.755-.3 1.253-1.014 1.253-1.805V50.715a29.002 29.002 0 007.74-9.22A27.387 27.387 0 0064 28.58C63.982 12.888 50.508 1.39 34.55.12z"/></g><defs><clipPath id="clip0"><path fill="#fff" d="M0 0h64v64H0z"/></clipPath></defs></svg>