<svg xmlns="http://www.w3.org/2000/svg" fill="none" viewBox="0 0 122 40"><path fill="#fff" d="M48.526 29.815l3.285-.797c.443.846 1.412 1.881 3.605 1.881 2.078 0 3.589-.936 3.589-3.154v-2.932h-.18c-.567 1.142-1.807 2.555-4.452 2.555-3.564 0-6.373-2.522-6.373-7.564 0-5.084 2.809-7.885 6.39-7.885 2.726 0 3.884 1.643 4.443 2.76h.205v-2.554h3.597v15.727c0 3.901-3.08 5.815-7.26 5.815-3.959-.009-6.184-1.75-6.85-3.852zM59.02 19.787c0-2.932-1.289-4.878-3.638-4.878-2.43 0-3.68 2.061-3.68 4.878 0 2.85 1.274 4.723 3.68 4.723 2.333.008 3.639-1.766 3.639-4.723zM63.571 19.951c0-4.771 2.891-8.032 7.326-8.032 3.81 0 7.071 2.39 7.071 7.819v1.117H67.193c.033 2.653 1.593 4.197 3.95 4.197 1.569 0 2.784-.682 3.277-1.996l3.409.386c-.641 2.685-3.121 4.451-6.727 4.451-4.68.008-7.53-3.088-7.53-7.942zM74.47 18.4c-.017-2.102-1.43-3.638-3.524-3.638-2.176 0-3.638 1.659-3.745 3.638h7.269zM86.649 14.08h-3.055v8.532c0 1.569.739 1.914 1.65 1.914.452 0 .863-.099 1.068-.148l.616 3.039a6.956 6.956 0 01-2.143.386c-2.743.082-4.854-1.437-4.838-4.55v-9.174h-2.192v-3.006h2.192V7.115h3.647v3.958h3.055v3.006z"/><path fill="#fff" d="M86.748 19.919c0-4.797 2.882-8 7.416-8 4.533 0 7.416 3.203 7.416 8 0 4.788-2.883 7.974-7.416 7.974-4.534 0-7.416-3.186-7.416-7.974zm11.128-.009c0-2.833-1.232-5.1-3.696-5.1-2.505 0-3.737 2.267-3.737 5.1 0 2.834 1.232 5.068 3.737 5.068 2.472 0 3.696-2.234 3.696-5.068zM102.532 12.125h3.589v2.562h.214c.55-1.117 1.692-2.76 4.418-2.76 3.573 0 6.39 2.801 6.39 7.959 0 5.1-2.727 7.99-6.373 7.99-2.661 0-3.86-1.584-4.435-2.71h-.148v8.238h-3.646v-21.28h-.009zm7.211 12.754c2.406 0 3.679-2.119 3.679-5.018 0-2.882-1.248-4.944-3.679-4.944-2.349 0-3.638 1.947-3.638 4.944 0 2.998 1.314 5.018 3.638 5.018zM118.013 12.125h3.647v15.473h-3.647V12.124zM117.767 9.053c-.008-1.125.92-2.053 2.07-2.053 1.108 0 2.061.92 2.069 2.053a2.093 2.093 0 01-2.069 2.07c-1.15 0-2.078-.92-2.07-2.07z"/><path stroke="#fff" stroke-width="3" d="M27.313 33.99l-.602-.58-.81.206a17.446 17.446 0 01-4.301.534h-3.205C9.034 34.15 1.5 26.794 1.5 17.862 1.5 9.034 9.107 2.32 18.509 1.57a15.782 15.782 0 012.966 0C30.88 2.32 38.49 9.034 38.5 17.864c0 2.596-.613 5.073-1.826 7.37a16.628 16.628 0 01-4.435 5.281l-.576.45V38.194l-4.35-4.202z"/></svg>